<mxfile host="65bd71144e">
    <diagram id="UAMPUgmVcGP045gAYGxC" name="Page-1">
        <mxGraphModel dx="1621" dy="2128" grid="1" gridSize="10" guides="1" tooltips="1" connect="1" arrows="1" fold="1" page="1" pageScale="1" pageWidth="827" pageHeight="1169" math="0" shadow="0">
            <root>
                <mxCell id="0"/>
                <mxCell id="1" parent="0"/>
                <mxCell id="91" style="edgeStyle=orthogonalEdgeStyle;curved=1;html=1;fontColor=#000000;" edge="1" parent="1" source="47" target="88">
                    <mxGeometry relative="1" as="geometry"/>
                </mxCell>
                <mxCell id="92" value="&lt;font color=&quot;#ffffff&quot;&gt;Event Loop&lt;/font&gt;" style="edgeLabel;html=1;align=center;verticalAlign=middle;resizable=0;points=[];fontColor=#000000;" vertex="1" connectable="0" parent="91">
                    <mxGeometry x="-0.1234" relative="1" as="geometry">
                        <mxPoint as="offset"/>
                    </mxGeometry>
                </mxCell>
                <mxCell id="47" value="" style="rounded=1;whiteSpace=wrap;html=1;align=center;fillColor=none;dashed=1;" vertex="1" parent="1">
                    <mxGeometry x="1710" y="195" width="160" height="65" as="geometry"/>
                </mxCell>
                <mxCell id="40" style="edgeStyle=orthogonalEdgeStyle;curved=1;html=1;entryX=0.5;entryY=0;entryDx=0;entryDy=0;" edge="1" parent="1" source="37" target="39">
                    <mxGeometry relative="1" as="geometry"/>
                </mxCell>
                <mxCell id="37" value="" style="rounded=1;whiteSpace=wrap;html=1;align=center;fillColor=none;dashed=1;" vertex="1" parent="1">
                    <mxGeometry x="1020" y="789" width="160" height="200" as="geometry"/>
                </mxCell>
                <mxCell id="32" style="edgeStyle=orthogonalEdgeStyle;curved=1;html=1;exitX=0.5;exitY=1;exitDx=0;exitDy=0;entryX=0.5;entryY=0;entryDx=0;entryDy=0;" edge="1" parent="1" source="30" target="31">
                    <mxGeometry relative="1" as="geometry"/>
                </mxCell>
                <mxCell id="30" value="" style="rounded=1;whiteSpace=wrap;html=1;align=center;fillColor=none;dashed=1;" vertex="1" parent="1">
                    <mxGeometry x="950" y="170" width="300" height="310" as="geometry"/>
                </mxCell>
                <mxCell id="27" style="edgeStyle=orthogonalEdgeStyle;curved=1;html=1;exitX=1;exitY=0.5;exitDx=0;exitDy=0;entryX=0;entryY=0.5;entryDx=0;entryDy=0;dashed=1;" edge="1" parent="1" source="23" target="26">
                    <mxGeometry relative="1" as="geometry"/>
                </mxCell>
                <mxCell id="29" style="edgeStyle=orthogonalEdgeStyle;curved=1;html=1;entryX=0.5;entryY=0;entryDx=0;entryDy=0;" edge="1" parent="1" source="23" target="28">
                    <mxGeometry relative="1" as="geometry"/>
                </mxCell>
                <mxCell id="23" value="" style="rounded=1;whiteSpace=wrap;html=1;align=center;fillColor=none;dashed=1;" vertex="1" parent="1">
                    <mxGeometry x="970" y="190" width="260" height="200" as="geometry"/>
                </mxCell>
                <mxCell id="5" style="edgeStyle=none;html=1;exitX=0.5;exitY=1;exitDx=0;exitDy=0;" parent="1" source="2" target="3" edge="1">
                    <mxGeometry relative="1" as="geometry"/>
                </mxCell>
                <mxCell id="2" value="setState" style="rounded=1;whiteSpace=wrap;html=1;" parent="1" vertex="1">
                    <mxGeometry x="354" y="90" width="120" height="60" as="geometry"/>
                </mxCell>
                <mxCell id="6" value="isBatchingEventUpdates = true" style="edgeStyle=none;html=1;exitX=0.5;exitY=1;exitDx=0;exitDy=0;entryX=0.5;entryY=0;entryDx=0;entryDy=0;" parent="1" source="3" target="4" edge="1">
                    <mxGeometry relative="1" as="geometry"/>
                </mxCell>
                <mxCell id="3" value="batchedEventUpdates" style="rounded=1;whiteSpace=wrap;html=1;" parent="1" vertex="1">
                    <mxGeometry x="341" y="210" width="146" height="60" as="geometry"/>
                </mxCell>
                <mxCell id="8" value="&lt;div style=&quot;text-align: left&quot;&gt;update&lt;/div&gt;&lt;div style=&quot;text-align: left&quot;&gt;expirationTime&lt;/div&gt;&lt;div style=&quot;text-align: left&quot;&gt;isBatchingEventUpdates&lt;/div&gt;" style="edgeStyle=none;html=1;exitX=0.5;exitY=1;exitDx=0;exitDy=0;entryX=0.5;entryY=0;entryDx=0;entryDy=0;" parent="1" source="4" target="7" edge="1">
                    <mxGeometry relative="1" as="geometry"/>
                </mxCell>
                <mxCell id="4" value="enqueueSetState" style="rounded=1;whiteSpace=wrap;html=1;" parent="1" vertex="1">
                    <mxGeometry x="354" y="350" width="120" height="60" as="geometry"/>
                </mxCell>
                <mxCell id="11" style="edgeStyle=orthogonalEdgeStyle;html=1;exitX=0.5;exitY=1;exitDx=0;exitDy=0;entryX=0.5;entryY=0;entryDx=0;entryDy=0;curved=1;" parent="1" source="7" target="9" edge="1">
                    <mxGeometry relative="1" as="geometry"/>
                </mxCell>
                <mxCell id="13" value="isBatchingEventUpdates = true" style="edgeLabel;html=1;align=right;verticalAlign=middle;resizable=0;points=[];" parent="11" vertex="1" connectable="0">
                    <mxGeometry x="-0.1101" y="2" relative="1" as="geometry">
                        <mxPoint as="offset"/>
                    </mxGeometry>
                </mxCell>
                <mxCell id="12" style="edgeStyle=orthogonalEdgeStyle;curved=1;html=1;exitX=0.5;exitY=1;exitDx=0;exitDy=0;entryX=0.5;entryY=0;entryDx=0;entryDy=0;" parent="1" source="7" target="10" edge="1">
                    <mxGeometry relative="1" as="geometry"/>
                </mxCell>
                <mxCell id="14" value="isBatchingEventUpdates = false" style="edgeLabel;html=1;align=left;verticalAlign=middle;resizable=0;points=[];" parent="12" vertex="1" connectable="0">
                    <mxGeometry x="0.0826" y="-2" relative="1" as="geometry">
                        <mxPoint as="offset"/>
                    </mxGeometry>
                </mxCell>
                <mxCell id="7" value="scheduleUpdateOnFiber" style="ellipse;whiteSpace=wrap;html=1;" parent="1" vertex="1">
                    <mxGeometry x="326" y="490" width="176" height="100" as="geometry"/>
                </mxCell>
                <mxCell id="9" value="batch update" style="rounded=1;whiteSpace=wrap;html=1;" parent="1" vertex="1">
                    <mxGeometry x="206" y="660" width="120" height="60" as="geometry"/>
                </mxCell>
                <mxCell id="10" value="break batch update" style="rounded=1;whiteSpace=wrap;html=1;" parent="1" vertex="1">
                    <mxGeometry x="502" y="660" width="120" height="60" as="geometry"/>
                </mxCell>
                <mxCell id="24" style="edgeStyle=orthogonalEdgeStyle;curved=1;html=1;exitX=0.5;exitY=1;exitDx=0;exitDy=0;entryX=0.5;entryY=0;entryDx=0;entryDy=0;" edge="1" parent="1" source="15" target="23">
                    <mxGeometry relative="1" as="geometry"/>
                </mxCell>
                <mxCell id="15" value="isBatchingEventUpdates = true" style="rounded=1;whiteSpace=wrap;html=1;align=center;fillColor=#f0a30a;strokeColor=#BD7000;fontColor=#000000;" vertex="1" parent="1">
                    <mxGeometry x="1000" y="110" width="200" height="40" as="geometry"/>
                </mxCell>
                <mxCell id="16" value="this.setState(obj1, cb1)" style="rounded=1;whiteSpace=wrap;html=1;align=center;fillColor=#d0cee2;strokeColor=#56517e;fontColor=#000000;" vertex="1" parent="1">
                    <mxGeometry x="1025" y="210" width="150" height="40" as="geometry"/>
                </mxCell>
                <mxCell id="17" value="cb1()" style="ellipse;whiteSpace=wrap;html=1;align=center;fillColor=#b1ddf0;strokeColor=#10739e;fontColor=#000000;" vertex="1" parent="1">
                    <mxGeometry x="1040" y="809" width="120" height="40" as="geometry"/>
                </mxCell>
                <mxCell id="18" value="this.setState(obj2, cb2)" style="rounded=1;whiteSpace=wrap;html=1;align=center;fillColor=#d0cee2;strokeColor=#56517e;fontColor=#000000;" vertex="1" parent="1">
                    <mxGeometry x="1025" y="270" width="150" height="40" as="geometry"/>
                </mxCell>
                <mxCell id="19" value="cb2()" style="ellipse;whiteSpace=wrap;html=1;align=center;fillColor=#b1ddf0;strokeColor=#10739e;fontColor=#000000;" vertex="1" parent="1">
                    <mxGeometry x="1040" y="869" width="120" height="40" as="geometry"/>
                </mxCell>
                <mxCell id="20" value="this.setState(obj3, cb3)" style="rounded=1;whiteSpace=wrap;html=1;align=center;fillColor=#d0cee2;strokeColor=#56517e;fontColor=#000000;" vertex="1" parent="1">
                    <mxGeometry x="1025" y="330" width="150" height="40" as="geometry"/>
                </mxCell>
                <mxCell id="21" value="cb3()" style="ellipse;whiteSpace=wrap;html=1;align=center;fillColor=#b1ddf0;strokeColor=#10739e;fontColor=#000000;" vertex="1" parent="1">
                    <mxGeometry x="1040" y="929" width="120" height="40" as="geometry"/>
                </mxCell>
                <mxCell id="26" value="&amp;nbsp;Batching" style="text;html=1;strokeColor=none;fillColor=none;align=center;verticalAlign=middle;whiteSpace=wrap;rounded=0;" vertex="1" parent="1">
                    <mxGeometry x="1340" y="280" width="40" height="20" as="geometry"/>
                </mxCell>
                <mxCell id="28" value="Object.assign(obj1, obj2, obj3)" style="rounded=1;whiteSpace=wrap;html=1;align=center;" vertex="1" parent="1">
                    <mxGeometry x="1010" y="420" width="180" height="40" as="geometry"/>
                </mxCell>
                <mxCell id="34" style="edgeStyle=orthogonalEdgeStyle;curved=1;html=1;" edge="1" parent="1" source="31" target="33">
                    <mxGeometry relative="1" as="geometry"/>
                </mxCell>
                <mxCell id="31" value="render" style="rounded=1;whiteSpace=wrap;html=1;fillColor=none;align=center;" vertex="1" parent="1">
                    <mxGeometry x="1040" y="509" width="120" height="60" as="geometry"/>
                </mxCell>
                <mxCell id="36" style="edgeStyle=orthogonalEdgeStyle;curved=1;html=1;" edge="1" parent="1" source="33" target="35">
                    <mxGeometry relative="1" as="geometry"/>
                </mxCell>
                <mxCell id="33" value="reconcile" style="rounded=1;whiteSpace=wrap;html=1;fillColor=none;align=center;" vertex="1" parent="1">
                    <mxGeometry x="1040" y="599" width="120" height="60" as="geometry"/>
                </mxCell>
                <mxCell id="38" style="edgeStyle=orthogonalEdgeStyle;curved=1;html=1;exitX=0.5;exitY=1;exitDx=0;exitDy=0;entryX=0.5;entryY=0;entryDx=0;entryDy=0;" edge="1" parent="1" source="35" target="37">
                    <mxGeometry relative="1" as="geometry"/>
                </mxCell>
                <mxCell id="35" value="commit" style="rounded=1;whiteSpace=wrap;html=1;fillColor=none;align=center;" vertex="1" parent="1">
                    <mxGeometry x="1040" y="689" width="120" height="60" as="geometry"/>
                </mxCell>
                <mxCell id="39" value="isBatchingEventUpdates = false" style="rounded=1;whiteSpace=wrap;html=1;align=center;fillColor=#f0a30a;strokeColor=#BD7000;fontColor=#000000;" vertex="1" parent="1">
                    <mxGeometry x="1000" y="1029" width="200" height="41" as="geometry"/>
                </mxCell>
                <mxCell id="48" style="edgeStyle=orthogonalEdgeStyle;curved=1;html=1;entryX=0.5;entryY=0;entryDx=0;entryDy=0;fontColor=#000000;" edge="1" parent="1" source="41" target="47">
                    <mxGeometry relative="1" as="geometry"/>
                </mxCell>
                <mxCell id="41" value="isBatchingEventUpdates = true" style="rounded=1;whiteSpace=wrap;html=1;align=center;fillColor=#f0a30a;strokeColor=#BD7000;fontColor=#000000;" vertex="1" parent="1">
                    <mxGeometry x="1690" y="130" width="200" height="40" as="geometry"/>
                </mxCell>
                <mxCell id="42" value="isBatchingEventUpdates = false" style="rounded=1;whiteSpace=wrap;html=1;align=center;fillColor=#f0a30a;strokeColor=#BD7000;fontColor=#000000;" vertex="1" parent="1">
                    <mxGeometry x="1690" y="289" width="200" height="41" as="geometry"/>
                </mxCell>
                <mxCell id="44" value="&lt;font color=&quot;#ffffff&quot;&gt;setTimeout&lt;/font&gt;" style="rounded=1;whiteSpace=wrap;html=1;fontColor=#000000;fillColor=none;align=center;" vertex="1" parent="1">
                    <mxGeometry x="1730" y="215" width="120" height="30" as="geometry"/>
                </mxCell>
                <mxCell id="49" style="edgeStyle=orthogonalEdgeStyle;curved=1;html=1;exitX=0.5;exitY=1;exitDx=0;exitDy=0;entryX=0.5;entryY=0;entryDx=0;entryDy=0;fontColor=#000000;" edge="1" parent="1" source="47" target="42">
                    <mxGeometry relative="1" as="geometry"/>
                </mxCell>
                <mxCell id="89" value="" style="group" vertex="1" connectable="0" parent="1">
                    <mxGeometry x="1970" y="-216.5" width="212" height="890" as="geometry"/>
                </mxCell>
                <mxCell id="88" value="" style="rounded=1;whiteSpace=wrap;html=1;align=center;fillColor=none;dashed=1;" vertex="1" parent="89">
                    <mxGeometry y="-2" width="212" height="890" as="geometry"/>
                </mxCell>
                <mxCell id="85" value="" style="group" vertex="1" connectable="0" parent="89">
                    <mxGeometry x="22" y="20" width="170" height="272.5" as="geometry"/>
                </mxCell>
                <mxCell id="59" value="" style="rounded=1;whiteSpace=wrap;html=1;align=center;fillColor=none;dashed=1;" vertex="1" parent="85">
                    <mxGeometry width="170" height="272.5" as="geometry"/>
                </mxCell>
                <mxCell id="50" value="this.setState(obj1, cb1)" style="rounded=1;whiteSpace=wrap;html=1;align=center;fillColor=#d0cee2;strokeColor=#56517e;fontColor=#000000;" vertex="1" parent="85">
                    <mxGeometry x="10" y="12.5" width="150" height="40" as="geometry"/>
                </mxCell>
                <mxCell id="51" value="render" style="rounded=1;whiteSpace=wrap;html=1;fillColor=none;align=center;" vertex="1" parent="85">
                    <mxGeometry x="25" y="72.5" width="120" height="30" as="geometry"/>
                </mxCell>
                <mxCell id="52" value="reconcile" style="rounded=1;whiteSpace=wrap;html=1;fillColor=none;align=center;" vertex="1" parent="85">
                    <mxGeometry x="25" y="122.5" width="120" height="30" as="geometry"/>
                </mxCell>
                <mxCell id="53" value="commit" style="rounded=1;whiteSpace=wrap;html=1;fillColor=none;align=center;" vertex="1" parent="85">
                    <mxGeometry x="25" y="172.5" width="120" height="30" as="geometry"/>
                </mxCell>
                <mxCell id="54" value="cb1()" style="ellipse;whiteSpace=wrap;html=1;align=center;fillColor=#b1ddf0;strokeColor=#10739e;fontColor=#000000;" vertex="1" parent="85">
                    <mxGeometry x="25" y="222.5" width="120" height="40" as="geometry"/>
                </mxCell>
                <mxCell id="55" style="edgeStyle=orthogonalEdgeStyle;curved=1;html=1;exitX=0.5;exitY=1;exitDx=0;exitDy=0;entryX=0.5;entryY=0;entryDx=0;entryDy=0;fontColor=#000000;" edge="1" parent="85" source="50" target="51">
                    <mxGeometry x="2010" as="geometry"/>
                </mxCell>
                <mxCell id="56" style="edgeStyle=orthogonalEdgeStyle;curved=1;html=1;exitX=0.5;exitY=1;exitDx=0;exitDy=0;entryX=0.5;entryY=0;entryDx=0;entryDy=0;fontColor=#000000;" edge="1" parent="85" source="51" target="52">
                    <mxGeometry x="2010" as="geometry"/>
                </mxCell>
                <mxCell id="57" style="edgeStyle=orthogonalEdgeStyle;curved=1;html=1;exitX=0.5;exitY=1;exitDx=0;exitDy=0;entryX=0.5;entryY=0;entryDx=0;entryDy=0;fontColor=#000000;" edge="1" parent="85" source="52" target="53">
                    <mxGeometry x="2010" as="geometry"/>
                </mxCell>
                <mxCell id="58" style="edgeStyle=orthogonalEdgeStyle;curved=1;html=1;exitX=0.5;exitY=1;exitDx=0;exitDy=0;entryX=0.5;entryY=0;entryDx=0;entryDy=0;fontColor=#000000;" edge="1" parent="85" source="53" target="54">
                    <mxGeometry x="2010" as="geometry"/>
                </mxCell>
                <mxCell id="86" value="" style="group" vertex="1" connectable="0" parent="89">
                    <mxGeometry x="22" y="309" width="170" height="272.5" as="geometry"/>
                </mxCell>
                <mxCell id="82" value="" style="rounded=1;whiteSpace=wrap;html=1;align=center;fillColor=none;dashed=1;" vertex="1" parent="86">
                    <mxGeometry width="170" height="272.5" as="geometry"/>
                </mxCell>
                <mxCell id="73" value="this.setState(obj2, cb2)" style="rounded=1;whiteSpace=wrap;html=1;align=center;fillColor=#d0cee2;strokeColor=#56517e;fontColor=#000000;" vertex="1" parent="86">
                    <mxGeometry x="10" y="12.5" width="150" height="40" as="geometry"/>
                </mxCell>
                <mxCell id="74" value="render" style="rounded=1;whiteSpace=wrap;html=1;fillColor=none;align=center;" vertex="1" parent="86">
                    <mxGeometry x="25" y="72.5" width="120" height="30" as="geometry"/>
                </mxCell>
                <mxCell id="76" value="reconcile" style="rounded=1;whiteSpace=wrap;html=1;fillColor=none;align=center;" vertex="1" parent="86">
                    <mxGeometry x="25" y="122.5" width="120" height="30" as="geometry"/>
                </mxCell>
                <mxCell id="78" value="commit" style="rounded=1;whiteSpace=wrap;html=1;fillColor=none;align=center;" vertex="1" parent="86">
                    <mxGeometry x="25" y="172.5" width="120" height="30" as="geometry"/>
                </mxCell>
                <mxCell id="80" value="cb2()" style="ellipse;whiteSpace=wrap;html=1;align=center;fillColor=#b1ddf0;strokeColor=#10739e;fontColor=#000000;" vertex="1" parent="86">
                    <mxGeometry x="25" y="222.5" width="120" height="40" as="geometry"/>
                </mxCell>
                <mxCell id="75" style="edgeStyle=orthogonalEdgeStyle;curved=1;html=1;exitX=0.5;exitY=1;exitDx=0;exitDy=0;entryX=0.5;entryY=0;entryDx=0;entryDy=0;fontColor=#000000;" edge="1" parent="86" source="73" target="74">
                    <mxGeometry x="2010" y="289" as="geometry"/>
                </mxCell>
                <mxCell id="77" style="edgeStyle=orthogonalEdgeStyle;curved=1;html=1;exitX=0.5;exitY=1;exitDx=0;exitDy=0;entryX=0.5;entryY=0;entryDx=0;entryDy=0;fontColor=#000000;" edge="1" parent="86" source="74" target="76">
                    <mxGeometry x="2010" y="289" as="geometry"/>
                </mxCell>
                <mxCell id="79" style="edgeStyle=orthogonalEdgeStyle;curved=1;html=1;exitX=0.5;exitY=1;exitDx=0;exitDy=0;entryX=0.5;entryY=0;entryDx=0;entryDy=0;fontColor=#000000;" edge="1" parent="86" source="76" target="78">
                    <mxGeometry x="2010" y="289" as="geometry"/>
                </mxCell>
                <mxCell id="81" style="edgeStyle=orthogonalEdgeStyle;curved=1;html=1;exitX=0.5;exitY=1;exitDx=0;exitDy=0;entryX=0.5;entryY=0;entryDx=0;entryDy=0;fontColor=#000000;" edge="1" parent="86" source="78" target="80">
                    <mxGeometry x="2010" y="289" as="geometry"/>
                </mxCell>
                <mxCell id="83" style="edgeStyle=orthogonalEdgeStyle;curved=1;html=1;entryX=0.5;entryY=0;entryDx=0;entryDy=0;fontColor=#000000;" edge="1" parent="89" source="59" target="82">
                    <mxGeometry relative="1" as="geometry"/>
                </mxCell>
                <mxCell id="87" value="" style="group" vertex="1" connectable="0" parent="89">
                    <mxGeometry x="22" y="600" width="170" height="272.5" as="geometry"/>
                </mxCell>
                <mxCell id="71" value="" style="rounded=1;whiteSpace=wrap;html=1;align=center;fillColor=none;dashed=1;" vertex="1" parent="87">
                    <mxGeometry width="170" height="272.5" as="geometry"/>
                </mxCell>
                <mxCell id="62" value="this.setState(obj3, cb3)" style="rounded=1;whiteSpace=wrap;html=1;align=center;fillColor=#d0cee2;strokeColor=#56517e;fontColor=#000000;" vertex="1" parent="87">
                    <mxGeometry x="10" y="12.5" width="150" height="40" as="geometry"/>
                </mxCell>
                <mxCell id="63" value="render" style="rounded=1;whiteSpace=wrap;html=1;fillColor=none;align=center;" vertex="1" parent="87">
                    <mxGeometry x="25" y="72.5" width="120" height="30" as="geometry"/>
                </mxCell>
                <mxCell id="65" value="reconcile" style="rounded=1;whiteSpace=wrap;html=1;fillColor=none;align=center;" vertex="1" parent="87">
                    <mxGeometry x="25" y="122.5" width="120" height="30" as="geometry"/>
                </mxCell>
                <mxCell id="67" value="commit" style="rounded=1;whiteSpace=wrap;html=1;fillColor=none;align=center;" vertex="1" parent="87">
                    <mxGeometry x="25" y="172.5" width="120" height="30" as="geometry"/>
                </mxCell>
                <mxCell id="69" value="cb3()" style="ellipse;whiteSpace=wrap;html=1;align=center;fillColor=#b1ddf0;strokeColor=#10739e;fontColor=#000000;" vertex="1" parent="87">
                    <mxGeometry x="25" y="222.5" width="120" height="40" as="geometry"/>
                </mxCell>
                <mxCell id="64" style="edgeStyle=orthogonalEdgeStyle;curved=1;html=1;exitX=0.5;exitY=1;exitDx=0;exitDy=0;entryX=0.5;entryY=0;entryDx=0;entryDy=0;fontColor=#000000;" edge="1" parent="87" source="62" target="63">
                    <mxGeometry x="2010" y="580" as="geometry"/>
                </mxCell>
                <mxCell id="66" style="edgeStyle=orthogonalEdgeStyle;curved=1;html=1;exitX=0.5;exitY=1;exitDx=0;exitDy=0;entryX=0.5;entryY=0;entryDx=0;entryDy=0;fontColor=#000000;" edge="1" parent="87" source="63" target="65">
                    <mxGeometry x="2010" y="580" as="geometry"/>
                </mxCell>
                <mxCell id="68" style="edgeStyle=orthogonalEdgeStyle;curved=1;html=1;exitX=0.5;exitY=1;exitDx=0;exitDy=0;entryX=0.5;entryY=0;entryDx=0;entryDy=0;fontColor=#000000;" edge="1" parent="87" source="65" target="67">
                    <mxGeometry x="2010" y="580" as="geometry"/>
                </mxCell>
                <mxCell id="70" style="edgeStyle=orthogonalEdgeStyle;curved=1;html=1;exitX=0.5;exitY=1;exitDx=0;exitDy=0;entryX=0.5;entryY=0;entryDx=0;entryDy=0;fontColor=#000000;" edge="1" parent="87" source="67" target="69">
                    <mxGeometry x="2010" y="580" as="geometry"/>
                </mxCell>
                <mxCell id="84" style="edgeStyle=orthogonalEdgeStyle;curved=1;html=1;fontColor=#000000;" edge="1" parent="89" source="82" target="71">
                    <mxGeometry relative="1" as="geometry"/>
                </mxCell>
            </root>
        </mxGraphModel>
    </diagram>
</mxfile>
